<?xml version="1.0" encoding="UTF-8"?>
<svg width="512px" height="512px" viewBox="0 0 512 512" version="1.1" xmlns="http://www.w3.org/2000/svg" xmlns:xlink="http://www.w3.org/1999/xlink">
    <!-- Generator: Sketch 54.1 (76490) - https://sketchapp.com -->
    <title>job</title>
    <desc>Created with Sketch.</desc>
    <g id="Page-1" stroke="none" stroke-width="1" fill="none" fill-rule="evenodd">
        <g id="job" fill-rule="nonzero">
            <path d="M414.007,148.75 C419.529,148.75 424.007,144.273 424.007,138.75 L424.007,30 C424.007,13.458 410.549,0 394.007,0 L30.007,0 C13.465,0 0.007,13.458 0.007,30 L0.007,482 C0.007,498.542 13.465,512 30.007,512 L394.007,512 C410.549,512 424.007,498.542 424.007,482 L424.007,408.328 C424.007,402.805 419.529,398.328 414.007,398.328 C408.485,398.328 404.007,402.805 404.007,408.328 L404.007,482 C404.007,487.514 399.521,492 394.007,492 L30.007,492 C24.493,492 20.007,487.514 20.007,482 L20.007,30 C20.007,24.486 24.493,20 30.007,20 L394.007,20 C399.521,20 404.007,24.486 404.007,30 L404.007,138.75 C404.007,144.273 408.485,148.75 414.007,148.75 Z" id="Path" fill="#6B46C1"></path>
            <path d="M212.007,54 C161.278,54 120.007,95.271 120.007,146 C120.007,172.317 131.117,196.085 148.889,212.869 C149.222,213.225 149.576,213.562 149.963,213.869 C166.334,228.848 188.121,237.999 212.006,237.999 C235.891,237.999 257.678,228.847 274.049,213.869 C274.436,213.562 274.79,213.224 275.123,212.869 C292.897,196.085 304.007,172.317 304.007,146 C304.007,95.271 262.736,54 212.007,54 Z M212.007,218 C195.678,218 180.608,212.528 168.516,203.332 C177.305,187.747 193.706,178 212.007,178 C230.308,178 246.709,187.747 255.498,203.332 C243.405,212.528 228.336,218 212.007,218 Z M196.007,142 L196.007,135.5 C196.007,126.678 203.185,119.5 212.007,119.5 C220.829,119.5 228.007,126.678 228.007,135.5 L228.007,142 C228.007,150.822 220.829,158 212.007,158 C203.185,158 196.007,150.822 196.007,142 Z M269.947,188.683 C262.572,177.745 252.351,169.238 240.484,163.986 C245.194,157.899 248.007,150.274 248.007,142 L248.007,135.5 C248.007,115.649 231.858,99.5 212.007,99.5 C192.156,99.5 176.007,115.649 176.007,135.5 L176.007,142 C176.007,150.274 178.82,157.899 183.53,163.986 C171.663,169.238 161.442,177.745 154.067,188.683 C145.238,176.73 140.007,161.967 140.007,146 C140.007,106.299 172.306,74 212.007,74 C251.708,74 284.007,106.299 284.007,146 C284.007,161.967 278.776,176.73 269.947,188.683 Z" id="Shape" fill="#6B46C1"></path>
            <path d="M266.007,438 L212.007,438 C206.485,438 202.007,442.477 202.007,448 C202.007,453.523 206.485,458 212.007,458 L266.007,458 C271.529,458 276.007,453.523 276.007,448 C276.007,442.477 271.529,438 266.007,438 Z" id="Path" fill="#4A5568"></path>
            <path d="M266.007,382 L124.007,382 C118.485,382 114.007,386.477 114.007,392 C114.007,397.523 118.485,402 124.007,402 L266.007,402 C271.529,402 276.007,397.523 276.007,392 C276.007,386.477 271.529,382 266.007,382 Z" id="Path" fill="#4A5568"></path>
            <path d="M266.007,326 L124.007,326 C118.485,326 114.007,330.477 114.007,336 C114.007,341.523 118.485,346 124.007,346 L266.007,346 C271.529,346 276.007,341.523 276.007,336 C276.007,330.477 271.529,326 266.007,326 Z" id="Path" fill="#4A5568"></path>
            <path d="M88.366,272.93 C86.507,271.07 83.927,270 81.287,270 C78.656,270 76.076,271.07 74.217,272.93 C72.357,274.79 71.287,277.37 71.287,280 C71.287,282.63 72.356,285.21 74.217,287.07 C76.087,288.93 78.656,290 81.287,290 C83.927,290 86.497,288.93 88.366,287.07 C90.226,285.21 91.297,282.63 91.297,280 C91.297,277.37 90.227,274.79 88.366,272.93 Z" id="Path" fill="#4A5568"></path>
            <path d="M88.366,328.93 C86.497,327.07 83.927,326 81.287,326 C78.656,326 76.087,327.07 74.217,328.93 C72.357,330.79 71.287,333.37 71.287,336 C71.287,338.63 72.356,341.21 74.217,343.07 C76.087,344.93 78.656,346 81.287,346 C83.927,346 86.497,344.93 88.366,343.07 C90.226,341.21 91.297,338.63 91.297,336 C91.297,333.37 90.227,330.79 88.366,328.93 Z" id="Path" fill="#4A5568"></path>
            <path d="M88.366,384.93 C86.497,383.07 83.927,382 81.287,382 C78.656,382 76.087,383.07 74.217,384.93 C72.357,386.79 71.287,389.37 71.287,392 C71.287,394.63 72.356,397.21 74.217,399.07 C76.076,400.93 78.656,402 81.287,402 C83.927,402 86.507,400.93 88.366,399.07 C90.226,397.21 91.297,394.63 91.297,392 C91.297,389.37 90.227,386.79 88.366,384.93 Z" id="Path" fill="#4A5568"></path>
            <path d="M266.007,270 L124.007,270 C118.485,270 114.007,274.477 114.007,280 C114.007,285.523 118.485,290 124.007,290 L266.007,290 C271.529,290 276.007,285.523 276.007,280 C276.007,274.477 271.529,270 266.007,270 Z" id="Path" fill="#4A5568"></path>
            <path d="M491.002,130.32 C481.287,124.711 469.969,123.221 459.131,126.124 C448.295,129.028 439.237,135.978 433.629,145.693 L307.787,363.656 C307.098,364.851 306.662,366.176 306.509,367.547 L297.651,446.891 C297.211,450.839 299.149,454.674 302.589,456.661 C304.142,457.557 305.867,458.001 307.588,458.001 C309.68,458.001 311.764,457.346 313.519,456.053 L377.803,408.709 C378.914,407.891 379.844,406.852 380.533,405.657 L506.374,187.694 C517.954,167.638 511.058,141.9 491.002,130.32 Z M320.063,426.394 L324.689,384.962 L353.631,401.672 L320.063,426.394 Z M368.213,386.996 L330.108,364.996 L431.093,190.086 L469.198,212.086 L368.213,386.996 Z M489.054,177.693 L479.197,194.766 L441.092,172.766 L450.949,155.693 C453.887,150.604 458.631,146.964 464.307,145.443 C469.985,143.921 475.913,144.703 481.001,147.641 C486.09,150.579 489.73,155.323 491.251,160.999 C492.772,166.675 491.992,172.604 489.054,177.693 Z" id="Shape" fill="#6B46C1"></path>
        </g>
    </g>
</svg>