<?xml version="1.0" encoding="UTF-8"?>
<svg width="34px" height="50px" viewBox="0 0 34 50" version="1.1" xmlns="http://www.w3.org/2000/svg" xmlns:xlink="http://www.w3.org/1999/xlink">
    <!-- Generator: Sketch 54.1 (76490) - https://sketchapp.com -->
    <title>Shape</title>
    <desc>Created with Sketch.</desc>
    <g id="Page-1" stroke="none" stroke-width="1" fill="none" fill-rule="evenodd">
        <g id="pin" fill="#44337A" fill-rule="nonzero">
            <path d="M16.7317383,0 C7.54189453,0 0.0650390625,7.47685547 0.0650390625,16.6666992 C0.0650390625,19.4254883 0.754785156,22.1608398 2.06601562,24.5870117 L15.8203125,49.4628906 C16.003418,49.7945312 16.3523437,50 16.7317383,50 C17.1111328,50 17.4600586,49.7945312 17.6431641,49.4628906 L31.4025391,24.5788086 C32.7086914,22.1608398 33.3984375,19.4253906 33.3984375,16.6666016 C33.3984375,7.47685547 25.921582,0 16.7317383,0 Z M16.7317383,25 C12.1368164,25 8.3984375,21.2616211 8.3984375,16.6666992 C8.3984375,12.0717773 12.1368164,8.33339844 16.7317383,8.33339844 C21.3266602,8.33339844 25.0650391,12.0717773 25.0650391,16.6666992 C25.0650391,21.2616211 21.3266602,25 16.7317383,25 Z" id="Shape"></path>
        </g>
    </g>
</svg>